<?xml version="1.0" encoding="utf-8"?>
<!-- Generator: Adobe Illustrator 23.0.3, SVG Export Plug-In . SVG Version: 6.00 Build 0)  -->
<svg version="1.2" baseProfile="tiny" id="Logo" xmlns="http://www.w3.org/2000/svg"
	xmlns:xlink="http://www.w3.org/1999/xlink" x="0px" y="0px" viewBox="0 0 173.67 173.67" xml:space="preserve">
	<rect fill="#FF5500" width="173.67" height="173.67" />
	<g>
		<path d="M42.63,48.69H52.9v70.92h33.98v8.61H42.63V48.69z" />
		<path d="M96.91,115.72c4.6,2.83,11.33,5.19,18.41,5.19c10.5,0,16.64-5.55,16.64-13.57c0-7.43-4.25-11.68-14.99-15.81
		c-12.98-4.6-21-11.33-21-22.54c0-12.39,10.27-21.59,25.72-21.59c8.14,0,14.04,1.89,17.58,3.89l-2.83,8.38
		c-2.6-1.42-7.91-3.78-15.1-3.78c-10.86,0-14.99,6.49-14.99,11.92c0,7.43,4.84,11.09,15.81,15.34c13.45,5.19,20.3,11.68,20.3,23.36
		c0,12.27-9.09,22.89-27.85,22.89c-7.67,0-16.05-2.24-20.29-5.07L96.91,115.72z" />
	</g>
	<g>
	</g>
	<g>
	</g>
	<g>
	</g>
	<g>
	</g>
	<g>
	</g>
</svg>